<?xml version="1.0" standalone="no"?>
<svg xmlns:xlink="http://www.w3.org/1999/xlink" id="wave" style="transform:rotate(0deg); transition: 0.3s" viewBox="0 0 1440 380" version="1.1" xmlns="http://www.w3.org/2000/svg"><defs><linearGradient id="sw-gradient-0" x1="0" x2="0" y1="1" y2="0"><stop stop-color="rgba(81, 147, 179, 1)" offset="0%"/><stop stop-color="rgba(100, 196, 195, 1)" offset="100%"/></linearGradient></defs><path style="transform:translate(0, 0px); opacity:1" fill="url(#sw-gradient-0)" d="M0,190L18.5,215.3C36.9,241,74,291,111,272.3C147.7,253,185,165,222,120.3C258.5,76,295,76,332,63.3C369.2,51,406,25,443,12.7C480,0,517,0,554,19C590.8,38,628,76,665,82.3C701.5,89,738,63,775,69.7C812.3,76,849,114,886,126.7C923.1,139,960,127,997,107.7C1033.8,89,1071,63,1108,50.7C1144.6,38,1182,38,1218,57C1255.4,76,1292,114,1329,107.7C1366.2,101,1403,51,1440,82.3C1476.9,114,1514,228,1551,285C1587.7,342,1625,342,1662,310.3C1698.5,279,1735,215,1772,164.7C1809.2,114,1846,76,1883,63.3C1920,51,1957,63,1994,82.3C2030.8,101,2068,127,2105,126.7C2141.5,127,2178,101,2215,88.7C2252.3,76,2289,76,2326,76C2363.1,76,2400,76,2437,63.3C2473.8,51,2511,25,2548,25.3C2584.6,25,2622,51,2640,63.3L2658.5,76L2658.5,380L2640,380C2621.5,380,2585,380,2548,380C2510.8,380,2474,380,2437,380C2400,380,2363,380,2326,380C2289.2,380,2252,380,2215,380C2178.5,380,2142,380,2105,380C2067.7,380,2031,380,1994,380C1956.9,380,1920,380,1883,380C1846.2,380,1809,380,1772,380C1735.4,380,1698,380,1662,380C1624.6,380,1588,380,1551,380C1513.8,380,1477,380,1440,380C1403.1,380,1366,380,1329,380C1292.3,380,1255,380,1218,380C1181.5,380,1145,380,1108,380C1070.8,380,1034,380,997,380C960,380,923,380,886,380C849.2,380,812,380,775,380C738.5,380,702,380,665,380C627.7,380,591,380,554,380C516.9,380,480,380,443,380C406.2,380,369,380,332,380C295.4,380,258,380,222,380C184.6,380,148,380,111,380C73.8,380,37,380,18,380L0,380Z"/><defs><linearGradient id="sw-gradient-1" x1="0" x2="0" y1="1" y2="0"><stop stop-color="rgba(243, 106, 62, 1)" offset="0%"/><stop stop-color="rgba(255, 179, 11, 1)" offset="100%"/></linearGradient></defs><path style="transform:translate(0, 50px); opacity:0.9" fill="url(#sw-gradient-1)" d="M0,228L18.5,215.3C36.9,203,74,177,111,164.7C147.7,152,185,152,222,139.3C258.5,127,295,101,332,114C369.2,127,406,177,443,215.3C480,253,517,279,554,253.3C590.8,228,628,152,665,114C701.5,76,738,76,775,88.7C812.3,101,849,127,886,120.3C923.1,114,960,76,997,107.7C1033.8,139,1071,241,1108,291.3C1144.6,342,1182,342,1218,291.3C1255.4,241,1292,139,1329,101.3C1366.2,63,1403,89,1440,101.3C1476.9,114,1514,114,1551,126.7C1587.7,139,1625,165,1662,171C1698.5,177,1735,165,1772,164.7C1809.2,165,1846,177,1883,164.7C1920,152,1957,114,1994,133C2030.8,152,2068,228,2105,253.3C2141.5,279,2178,253,2215,240.7C2252.3,228,2289,228,2326,190C2363.1,152,2400,76,2437,38C2473.8,0,2511,0,2548,50.7C2584.6,101,2622,203,2640,253.3L2658.5,304L2658.5,380L2640,380C2621.5,380,2585,380,2548,380C2510.8,380,2474,380,2437,380C2400,380,2363,380,2326,380C2289.2,380,2252,380,2215,380C2178.5,380,2142,380,2105,380C2067.7,380,2031,380,1994,380C1956.9,380,1920,380,1883,380C1846.2,380,1809,380,1772,380C1735.4,380,1698,380,1662,380C1624.6,380,1588,380,1551,380C1513.8,380,1477,380,1440,380C1403.1,380,1366,380,1329,380C1292.3,380,1255,380,1218,380C1181.5,380,1145,380,1108,380C1070.8,380,1034,380,997,380C960,380,923,380,886,380C849.2,380,812,380,775,380C738.5,380,702,380,665,380C627.7,380,591,380,554,380C516.9,380,480,380,443,380C406.2,380,369,380,332,380C295.4,380,258,380,222,380C184.6,380,148,380,111,380C73.8,380,37,380,18,380L0,380Z"/></svg>