<?xml version="1.0" standalone="no"?>
<svg xmlns:xlink="http://www.w3.org/1999/xlink" id="wave" style="transform:rotate(0deg); transition: 0.3s" viewBox="0 0 1440 380" version="1.1" xmlns="http://www.w3.org/2000/svg"><defs><linearGradient id="sw-gradient-0" x1="0" x2="0" y1="1" y2="0"><stop stop-color="rgba(0, 195.39, 255, 1)" offset="0%"/><stop stop-color="rgba(32.613, 255, 156.301, 1)" offset="100%"/></linearGradient></defs><path style="transform:translate(0, 0px); opacity:1" fill="url(#sw-gradient-0)" d="M0,38L60,88.7C120,139,240,241,360,291.3C480,342,600,342,720,297.7C840,253,960,165,1080,114C1200,63,1320,51,1440,38C1560,25,1680,13,1800,57C1920,101,2040,203,2160,202.7C2280,203,2400,101,2520,95C2640,89,2760,177,2880,215.3C3000,253,3120,241,3240,215.3C3360,190,3480,152,3600,171C3720,190,3840,266,3960,259.7C4080,253,4200,165,4320,164.7C4440,165,4560,253,4680,297.7C4800,342,4920,342,5040,304C5160,266,5280,190,5400,183.7C5520,177,5640,241,5760,228C5880,215,6000,127,6120,114C6240,101,6360,165,6480,215.3C6600,266,6720,304,6840,323C6960,342,7080,342,7200,297.7C7320,253,7440,165,7560,107.7C7680,51,7800,25,7920,38C8040,51,8160,101,8280,107.7C8400,114,8520,76,8580,57L8640,38L8640,380L8580,380C8520,380,8400,380,8280,380C8160,380,8040,380,7920,380C7800,380,7680,380,7560,380C7440,380,7320,380,7200,380C7080,380,6960,380,6840,380C6720,380,6600,380,6480,380C6360,380,6240,380,6120,380C6000,380,5880,380,5760,380C5640,380,5520,380,5400,380C5280,380,5160,380,5040,380C4920,380,4800,380,4680,380C4560,380,4440,380,4320,380C4200,380,4080,380,3960,380C3840,380,3720,380,3600,380C3480,380,3360,380,3240,380C3120,380,3000,380,2880,380C2760,380,2640,380,2520,380C2400,380,2280,380,2160,380C2040,380,1920,380,1800,380C1680,380,1560,380,1440,380C1320,380,1200,380,1080,380C960,380,840,380,720,380C600,380,480,380,360,380C240,380,120,380,60,380L0,380Z"/></svg>